<?xml version="1.0" encoding="utf-8"?>
<!-- Generator: Adobe Illustrator 15.1.0, SVG Export Plug-In . SVG Version: 6.00 Build 0)  -->
<!DOCTYPE svg PUBLIC "-//W3C//DTD SVG 1.1//EN" "http://www.w3.org/Graphics/SVG/1.1/DTD/svg11.dtd">
<svg version="1.1" id="Layer_1" xmlns="http://www.w3.org/2000/svg" xmlns:xlink="http://www.w3.org/1999/xlink" x="0px" y="0px"
	 width="360px" height="360px" viewBox="0 0 360 360" enable-background="new 0 0 360 360" xml:space="preserve">
<g opacity="0.67">
	<circle fill="#FFFFFF" cx="179.97" cy="180.196" r="125"/>
	<g>
		<g>
			<g>
				<path fill="#FFFFFF" d="M179.97,286.821c14.008,0.007,27.927-2.732,40.808-8.085c12.883-5.334,24.708-13.259,34.588-23.145
					c9.886-9.88,17.811-21.705,23.145-34.588c5.353-12.881,8.092-26.799,8.085-40.808h36.75
					c0.016,18.721-3.673,37.537-10.888,54.885c-7.189,17.36-17.841,33.24-31.106,46.497c-13.256,13.266-29.136,23.916-46.497,31.105
					c-17.348,7.215-36.163,10.903-54.884,10.888V286.821z"/>
				<path fill="#FEFEFE" d="M168.007,286.157c13.896,1.549,28.12,0.382,41.499-3.477c13.398-3.844,26.021-10.387,36.936-19.111
					c10.924-8.711,20.124-19.591,26.877-31.803c6.771-12.207,11.076-25.729,12.613-39.607l36.524,4.07
					c-2.062,18.655-7.879,36.927-16.988,53.343c-9.09,16.431-21.43,31.017-36.095,42.715
					c-14.651,11.713-31.645,20.529-49.711,25.712c-18.078,5.204-37.096,6.757-55.725,4.683L168.007,286.157z"/>
				<path fill="#FDFDFD" d="M162.084,285.329c13.751,2.316,28.062,1.936,41.636-1.16c13.598-3.082,26.561-8.897,37.943-16.995
					c11.387-8.088,21.179-18.441,28.612-30.259c7.447-11.812,12.519-25.074,14.828-38.832l36.237,6.112
					c-3.107,18.525-9.954,36.428-19.967,52.301c-9.996,15.888-23.122,29.765-38.42,40.632
					c-15.286,10.878-32.762,18.725-51.089,22.877c-18.343,4.167-37.372,4.675-55.895,1.562L162.084,285.329z"/>
				<path fill="#FCFCFC" d="M150.436,282.681c13.378,3.858,27.602,5.025,41.498,3.477c13.878-1.537,27.4-5.843,39.607-12.612
					c12.212-6.754,23.092-15.954,31.803-26.878c8.725-10.914,15.268-23.537,19.111-36.936l35.318,10.156
					c-5.183,18.066-14,35.06-25.712,49.711c-11.698,14.665-26.284,27.005-42.716,36.095c-16.416,9.109-34.687,14.926-53.342,16.988
					c-18.63,2.074-37.647,0.521-55.726-4.683L150.436,282.681z"/>
				<path fill="#FBFBFB" d="M144.743,280.869c13.154,4.615,27.229,6.564,41.223,5.784c13.962-0.758,27.703-4.288,40.267-10.359
					c12.565-6.056,23.936-14.634,33.246-25.054c9.323-10.412,16.569-22.656,21.165-35.817l34.688,12.138
					c-6.196,17.743-15.947,34.204-28.458,48.177c-12.497,13.985-27.751,25.5-44.673,33.656
					c-16.907,8.177-35.484,12.94-54.206,13.954c-18.682,1.046-37.65-1.565-55.388-7.791L144.743,280.869z"/>
				<path fill="#FAFAFA" d="M133.708,276.294c12.563,6.071,26.304,9.601,40.267,10.359c13.994,0.78,28.068-1.169,41.222-5.784
					c13.161-4.596,25.405-11.842,35.816-21.164c10.421-9.312,18.999-20.681,25.055-33.247l33.1,15.969
					c-8.156,16.922-19.672,32.175-33.656,44.672c-13.973,12.511-30.434,22.262-48.178,28.458
					c-17.737,6.226-36.705,8.837-55.388,7.791c-18.721-1.014-37.298-5.777-54.206-13.954L133.708,276.294z"/>
				<path fill="#F9F9F9" d="M123.251,270.501c11.812,7.447,25.075,12.519,38.833,14.828c13.751,2.316,28.062,1.936,41.636-1.16
					c13.598-3.082,26.561-8.897,37.943-16.995c11.387-8.088,21.179-18.441,28.612-30.259l31.099,19.581
					c-9.996,15.888-23.122,29.765-38.42,40.632c-15.286,10.878-32.762,18.725-51.089,22.877
					c-18.343,4.167-37.372,4.675-55.895,1.562c-18.524-3.107-36.427-9.954-52.3-19.967L123.251,270.501z"/>
				<path fill="#F8F8F8" d="M118.278,267.174c11.382,8.098,24.345,13.913,37.943,16.995c13.574,3.096,27.885,3.477,41.635,1.16
					c13.758-2.31,27.021-7.38,38.833-14.828c11.817-7.434,22.171-17.226,30.259-28.612l29.954,21.291
					c-10.867,15.298-24.744,28.424-40.632,38.42c-15.873,10.013-33.776,16.859-52.301,19.967
					c-18.522,3.113-37.551,2.605-55.894-1.562c-18.327-4.152-35.803-11.999-51.089-22.877L118.278,267.174z"/>
				<path fill="#F7F7F7" d="M108.927,259.704c10.412,9.323,22.656,16.569,35.816,21.165c13.154,4.615,27.229,6.564,41.223,5.784
					c13.962-0.758,27.703-4.288,40.267-10.359c12.565-6.056,23.936-14.634,33.246-25.054l27.395,24.497
					c-12.497,13.985-27.751,25.5-44.673,33.656c-16.907,8.177-35.484,12.94-54.206,13.954c-18.682,1.046-37.65-1.565-55.388-7.791
					c-17.744-6.196-34.205-15.947-48.177-28.458L108.927,259.704z"/>
				<path fill="#F6F6F6" d="M100.462,251.239c9.311,10.421,20.681,18.999,33.247,25.055c12.563,6.071,26.304,9.601,40.267,10.359
					c13.994,0.78,28.068-1.169,41.222-5.784c13.161-4.596,25.405-11.842,35.816-21.164l24.498,27.394
					c-13.973,12.511-30.434,22.262-48.178,28.458c-17.737,6.226-36.705,8.837-55.388,7.791
					c-18.721-1.014-37.298-5.777-54.206-13.954c-16.922-8.156-32.175-19.671-44.672-33.656L100.462,251.239z"/>
				<path fill="#F5F5F5" d="M96.597,246.667c8.711,10.924,19.591,20.124,31.803,26.877c12.207,6.771,25.729,11.076,39.607,12.613
					c13.896,1.549,28.12,0.382,41.499-3.477c13.398-3.844,26.021-10.387,36.936-19.111l22.932,28.718
					c-14.651,11.713-31.645,20.529-49.711,25.712c-18.078,5.204-37.096,6.757-55.725,4.683
					c-18.655-2.062-36.926-7.879-53.342-16.988c-16.431-9.09-31.018-21.43-42.716-36.095L96.597,246.667z"/>
				<path fill="#F4F4F4" d="M89.666,236.915c7.434,11.817,17.225,22.171,28.613,30.259c11.382,8.098,24.345,13.913,37.943,16.995
					c13.574,3.096,27.885,3.477,41.635,1.16c13.758-2.31,27.021-7.38,38.833-14.828l19.581,31.099
					c-15.873,10.013-33.776,16.859-52.301,19.967c-18.522,3.113-37.551,2.605-55.894-1.562
					c-18.327-4.152-35.803-11.999-51.089-22.877c-15.297-10.867-28.424-24.744-38.42-40.632L89.666,236.915z"/>
				<path fill="#F3F3F3" d="M86.622,231.767c6.753,12.212,15.954,23.092,26.877,31.803c10.915,8.724,23.537,15.268,36.936,19.111
					c13.378,3.858,27.602,5.025,41.498,3.477c13.878-1.537,27.4-5.843,39.607-12.612l17.805,32.148
					c-16.416,9.109-34.687,14.926-53.342,16.988c-18.63,2.074-37.647,0.521-55.726-4.683c-18.066-5.183-35.059-14-49.71-25.712
					c-14.665-11.698-27.005-26.284-36.095-42.716L86.622,231.767z"/>
				<path fill="#F2F2F2" d="M81.43,221.004c5.334,12.883,13.259,24.708,23.145,34.588c9.879,9.886,21.705,17.811,34.588,23.145
					c12.881,5.352,26.799,8.092,40.808,8.085c14.008,0.007,27.927-2.732,40.808-8.085l14.076,33.947
					c-17.348,7.215-36.163,10.903-54.884,10.888c-18.721,0.016-37.537-3.673-54.884-10.888
					c-17.361-7.189-33.24-17.841-46.497-31.105c-13.266-13.257-23.917-29.137-31.106-46.498L81.43,221.004z"/>
				<path fill="#F1F1F1" d="M77.486,209.731c3.844,13.398,10.387,26.021,19.111,36.936c8.711,10.924,19.591,20.124,31.803,26.877
					c12.207,6.771,25.729,11.076,39.607,12.613c13.896,1.549,28.12,0.382,41.499-3.477l10.156,35.318
					c-18.078,5.204-37.096,6.757-55.725,4.683c-18.655-2.062-36.926-7.879-53.342-16.988c-16.431-9.09-31.018-21.43-42.716-36.095
					c-11.712-14.651-20.529-31.645-25.712-49.711L77.486,209.731z"/>
				<path fill="#F0F0F0" d="M75.998,203.945c3.082,13.598,8.897,26.561,16.995,37.943c8.088,11.387,18.441,21.179,30.259,28.612
					c11.812,7.447,25.075,12.519,38.833,14.828c13.751,2.316,28.062,1.936,41.636-1.16l8.146,35.836
					c-18.343,4.167-37.372,4.675-55.895,1.562c-18.524-3.107-36.427-9.954-52.3-19.967c-15.888-9.996-29.765-23.122-40.632-38.42
					c-10.878-15.286-18.725-32.762-22.877-51.089L75.998,203.945z"/>
				<path fill="#EFEFEF" d="M74.009,192.159c1.538,13.878,5.843,27.4,12.613,39.607c6.753,12.212,15.954,23.092,26.877,31.803
					c10.915,8.724,23.537,15.268,36.936,19.111c13.378,3.858,27.602,5.025,41.498,3.477l4.07,36.524
					c-18.63,2.074-37.647,0.521-55.726-4.683c-18.066-5.183-35.059-14-49.71-25.712c-14.665-11.698-27.005-26.284-36.095-42.716
					c-9.109-16.416-14.925-34.687-16.988-53.342L74.009,192.159z"/>
				<path fill="#EEEEEE" d="M73.513,186.191c0.759,13.962,4.288,27.703,10.359,40.267c6.056,12.565,14.634,23.936,25.055,33.246
					c10.412,9.323,22.656,16.569,35.816,21.165c13.154,4.615,27.229,6.564,41.223,5.784l2.028,36.694
					c-18.682,1.046-37.65-1.565-55.388-7.791c-17.744-6.196-34.205-15.947-48.177-28.458c-13.985-12.497-25.5-27.75-33.656-44.672
					c-8.177-16.908-12.941-35.485-13.954-54.207L73.513,186.191z"/>
				<path fill="#EDEDED" d="M73.513,174.201c-0.779,13.994,1.169,28.068,5.785,41.222c4.595,13.161,11.841,25.405,21.164,35.816
					c9.311,10.421,20.681,18.999,33.247,25.055c12.563,6.071,26.304,9.601,40.267,10.359l-2.029,36.694
					c-18.721-1.014-37.298-5.777-54.206-13.954c-16.922-8.156-32.175-19.671-44.672-33.656
					c-12.511-13.973-22.262-30.434-28.458-48.178c-6.226-17.736-8.837-36.705-7.791-55.388L73.513,174.201z"/>
				<path fill="#ECECEC" d="M74.838,162.31c-2.317,13.751-1.937,28.062,1.16,41.636c3.082,13.598,8.897,26.561,16.995,37.943
					c8.088,11.387,18.441,21.179,30.259,28.612c11.812,7.447,25.075,12.519,38.833,14.828l-6.113,36.237
					c-18.524-3.107-36.427-9.954-52.3-19.967c-15.888-9.996-29.765-23.122-40.632-38.42c-10.878-15.286-18.725-32.762-22.877-51.089
					c-4.167-18.343-4.674-37.371-1.562-55.894L74.838,162.31z"/>
				<path fill="#EBEBEB" d="M75.998,156.447c-3.096,13.574-3.477,27.885-1.16,41.636c2.309,13.757,7.38,27.021,14.828,38.832
					c7.434,11.817,17.225,22.171,28.613,30.259c11.382,8.098,24.345,13.913,37.943,16.995l-8.146,35.836
					c-18.327-4.152-35.803-11.999-51.089-22.877c-15.297-10.867-28.424-24.744-38.42-40.632
					C48.554,240.623,41.708,222.72,38.6,204.195c-3.112-18.522-2.605-37.551,1.562-55.894L75.998,156.447z"/>
				<path fill="#EAEAEA" d="M79.298,144.969c-4.616,13.154-6.564,27.229-5.785,41.222c0.759,13.962,4.288,27.703,10.359,40.267
					c6.056,12.565,14.634,23.936,25.055,33.246c10.412,9.323,22.656,16.569,35.816,21.165l-12.137,34.688
					c-17.744-6.196-34.205-15.947-48.177-28.458c-13.985-12.497-25.5-27.75-33.656-44.672
					c-8.177-16.908-12.941-35.485-13.954-54.207c-1.046-18.682,1.565-37.65,7.791-55.388L79.298,144.969z"/>
				<path fill="#E9E9E9" d="M83.873,133.934c-6.071,12.563-9.601,26.304-10.36,40.267c-0.779,13.994,1.169,28.068,5.785,41.222
					c4.595,13.161,11.841,25.405,21.164,35.816c9.311,10.421,20.681,18.999,33.247,25.055l-15.968,33.1
					c-16.922-8.156-32.175-19.671-44.672-33.656c-12.511-13.973-22.262-30.434-28.458-48.178
					c-6.226-17.736-8.837-36.705-7.791-55.388c1.013-18.721,5.777-37.298,13.954-54.206L83.873,133.934z"/>
				<path fill="#E8E8E8" d="M86.622,128.626c-6.77,12.207-11.076,25.729-12.613,39.607c-1.549,13.896-0.381,28.12,3.477,41.499
					c3.844,13.398,10.387,26.021,19.111,36.936c8.711,10.924,19.591,20.124,31.803,26.877l-17.805,32.149
					c-16.431-9.09-31.018-21.43-42.716-36.095c-11.712-14.651-20.529-31.645-25.712-49.711c-5.203-18.078-6.757-37.095-4.682-55.725
					c2.063-18.656,7.879-36.927,16.989-53.342L86.622,128.626z"/>
				<path fill="#E7E7E7" d="M92.993,118.504c-8.098,11.383-13.914,24.345-16.996,37.943c-3.096,13.574-3.477,27.885-1.16,41.636
					c2.309,13.757,7.38,27.021,14.828,38.832c7.434,11.817,17.225,22.171,28.613,30.259l-21.292,29.954
					c-15.297-10.867-28.424-24.744-38.42-40.632C48.554,240.623,41.708,222.72,38.6,204.195
					c-3.112-18.522-2.605-37.551,1.562-55.894c4.152-18.327,11.999-35.803,22.877-51.088L92.993,118.504z"/>
				<path fill="#E6E6E6" d="M96.597,113.725c-8.724,10.915-15.267,23.537-19.111,36.936c-3.858,13.378-5.026,27.602-3.477,41.498
					c1.538,13.878,5.843,27.4,12.613,39.607c6.753,12.212,15.954,23.092,26.877,31.803l-22.931,28.718
					c-14.665-11.698-27.005-26.284-36.095-42.716c-9.109-16.416-14.925-34.687-16.988-53.342
					c-2.075-18.63-0.521-37.647,4.683-55.726c5.183-18.066,14-35.059,25.712-49.71L96.597,113.725z"/>
				<path fill="#E6E6E6" d="M104.575,104.801c-9.886,9.879-17.811,21.705-23.145,34.588c-5.352,12.881-8.091,26.799-8.085,40.808
					c-0.006,14.008,2.733,27.927,8.085,40.808c5.334,12.883,13.259,24.708,23.145,34.588l-25.986,25.986
					c-13.266-13.257-23.917-29.137-31.106-46.498c-7.214-17.348-10.904-36.163-10.888-54.884
					c-0.016-18.721,3.673-37.537,10.888-54.885c7.189-17.36,17.84-33.24,31.105-46.497L104.575,104.801z"/>
				<path fill="#E5E5E5" d="M113.5,96.823c-10.923,8.711-20.124,19.591-26.877,31.803c-6.77,12.207-11.076,25.729-12.613,39.607
					c-1.549,13.896-0.381,28.12,3.477,41.499c3.844,13.398,10.387,26.021,19.111,36.936l-28.718,22.932
					c-11.712-14.651-20.529-31.645-25.712-49.711c-5.203-18.078-6.757-37.095-4.682-55.725c2.063-18.656,7.879-36.927,16.989-53.342
					c9.09-16.431,21.43-31.018,36.095-42.716L113.5,96.823z"/>
				<path fill="#E4E4E4" d="M118.278,93.219c-11.387,8.087-21.179,18.441-28.612,30.258c-7.448,11.812-12.519,25.075-14.828,38.833
					c-2.317,13.751-1.937,28.062,1.16,41.636c3.082,13.598,8.897,26.561,16.995,37.943L63.039,263.18
					c-10.878-15.286-18.725-32.762-22.877-51.089c-4.167-18.343-4.674-37.371-1.562-55.894c3.108-18.525,9.955-36.427,19.967-52.301
					c9.997-15.888,23.123-29.765,38.42-40.631L118.278,93.219z"/>
				<path fill="#E3E3E3" d="M128.4,86.848c-12.212,6.754-23.092,15.954-31.803,26.877c-8.724,10.915-15.267,23.537-19.111,36.936
					c-3.858,13.378-5.026,27.602-3.477,41.498c1.538,13.878,5.843,27.4,12.613,39.607l-32.149,17.805
					c-9.109-16.416-14.925-34.687-16.988-53.342c-2.075-18.63-0.521-37.647,4.683-55.726c5.183-18.066,14-35.059,25.712-49.71
					c11.698-14.665,26.285-27.005,42.716-36.095L128.4,86.848z"/>
				<path fill="#E2E2E2" d="M133.709,84.098c-12.566,6.056-23.936,14.634-33.247,25.055c-9.323,10.411-16.569,22.655-21.165,35.816
					c-4.616,13.154-6.564,27.229-5.785,41.222c0.759,13.962,4.288,27.703,10.359,40.267l-33.099,15.969
					c-8.177-16.908-12.941-35.485-13.954-54.207c-1.046-18.682,1.565-37.65,7.791-55.388c6.196-17.744,15.948-34.205,28.458-48.177
					c12.498-13.985,27.75-25.5,44.672-33.657L133.709,84.098z"/>
				<path fill="#E1E1E1" d="M144.744,79.523c-13.161,4.595-25.405,11.841-35.816,21.164c-10.421,9.311-18.999,20.681-25.055,33.247
					c-6.071,12.563-9.601,26.304-10.36,40.267c-0.779,13.994,1.169,28.068,5.785,41.222L44.61,227.56
					c-6.226-17.736-8.837-36.705-7.791-55.388c1.013-18.721,5.777-37.298,13.954-54.206c8.157-16.922,19.671-32.175,33.657-44.672
					c13.972-12.51,30.434-22.262,48.177-28.458L144.744,79.523z"/>
				<path fill="#E0E0E0" d="M156.221,76.223c-13.597,3.082-26.56,8.897-37.943,16.996c-11.387,8.087-21.179,18.441-28.612,30.258
					c-7.448,11.812-12.519,25.075-14.828,38.833c-2.317,13.751-1.937,28.062,1.16,41.636l-35.836,8.146
					c-4.167-18.343-4.674-37.371-1.562-55.894c3.108-18.525,9.955-36.427,19.967-52.301c9.997-15.888,23.123-29.765,38.42-40.631
					c15.286-10.878,32.761-18.725,51.088-22.877L156.221,76.223z"/>
				<path fill="#DFDFDF" d="M162.084,75.063c-13.757,2.31-27.021,7.38-38.833,14.828c-11.817,7.434-22.171,17.226-30.258,28.613
					c-8.098,11.383-13.914,24.345-16.996,37.943c-3.096,13.574-3.477,27.885-1.16,41.636L38.6,204.195
					c-3.112-18.522-2.605-37.551,1.562-55.894c4.152-18.327,11.999-35.803,22.877-51.088c10.867-15.298,24.744-28.424,40.631-38.42
					c15.874-10.012,33.776-16.859,52.301-19.967L162.084,75.063z"/>
				<path fill="#DEDEDE" d="M173.975,73.738c-13.962,0.759-27.703,4.289-40.266,10.36c-12.566,6.056-23.936,14.634-33.247,25.055
					c-9.323,10.411-16.569,22.655-21.165,35.816c-4.616,13.154-6.564,27.229-5.785,41.222l-36.694,2.028
					c-1.046-18.682,1.565-37.65,7.791-55.388c6.196-17.744,15.948-34.205,28.458-48.177c12.498-13.985,27.75-25.5,44.672-33.657
					c16.908-8.177,35.485-12.941,54.206-13.954L173.975,73.738z"/>
				<path fill="#DDDDDD" d="M185.966,73.738c-13.994-0.779-28.068,1.169-41.222,5.785c-13.161,4.595-25.405,11.841-35.816,21.164
					c-10.421,9.311-18.999,20.681-25.055,33.247c-6.071,12.563-9.601,26.304-10.36,40.267l-36.694-2.029
					c1.013-18.721,5.777-37.298,13.954-54.206c8.157-16.922,19.671-32.175,33.657-44.672c13.972-12.51,30.434-22.262,48.177-28.458
					c17.737-6.226,36.706-8.837,55.389-7.791L185.966,73.738z"/>
				<path fill="#DCDCDC" d="M191.934,74.234c-13.896-1.549-28.12-0.381-41.498,3.477c-13.399,3.844-26.021,10.387-36.936,19.111
					c-10.923,8.711-20.124,19.591-26.877,31.803c-6.77,12.207-11.076,25.729-12.613,39.607l-36.524-4.07
					c2.063-18.656,7.879-36.927,16.989-53.342c9.09-16.431,21.43-31.018,36.095-42.716c14.651-11.712,31.644-20.529,49.71-25.712
					c18.078-5.204,37.095-6.757,55.725-4.683L191.934,74.234z"/>
				<path fill="#DBDBDB" d="M203.72,76.223c-13.574-3.096-27.885-3.477-41.636-1.16c-13.757,2.31-27.021,7.38-38.833,14.828
					c-11.817,7.434-22.171,17.226-30.258,28.613c-8.098,11.383-13.914,24.345-16.996,37.943l-35.836-8.146
					c4.152-18.327,11.999-35.803,22.877-51.088c10.867-15.298,24.744-28.424,40.631-38.42
					c15.874-10.012,33.776-16.859,52.301-19.967c18.523-3.112,37.551-2.605,55.894,1.562L203.72,76.223z"/>
				<path fill="#DADADA" d="M209.506,77.711c-13.379-3.858-27.603-5.026-41.499-3.477c-13.878,1.538-27.4,5.843-39.607,12.613
					c-12.212,6.754-23.092,15.954-31.803,26.877c-8.724,10.915-15.267,23.537-19.111,36.936l-35.318-10.157
					c5.183-18.066,14-35.059,25.712-49.71c11.698-14.665,26.285-27.005,42.716-36.095c16.416-9.11,34.687-14.926,53.342-16.989
					c18.63-2.075,37.646-0.521,55.725,4.683L209.506,77.711z"/>
				<path fill="#D9D9D9" d="M220.778,81.656c-12.881-5.352-26.8-8.091-40.808-8.085c-14.008-0.006-27.927,2.733-40.808,8.085
					c-12.883,5.334-24.708,13.259-34.588,23.145c-9.886,9.879-17.811,21.705-23.145,34.588l-33.947-14.077
					c7.189-17.36,17.84-33.24,31.105-46.497c13.257-13.266,29.137-23.916,46.498-31.105c17.347-7.215,36.163-10.904,54.884-10.888
					c18.721-0.016,37.537,3.673,54.885,10.888L220.778,81.656z"/>
				<path fill="#D8D8D8" d="M231.541,86.848c-12.207-6.77-25.729-11.076-39.607-12.613c-13.896-1.549-28.12-0.381-41.498,3.477
					c-13.399,3.844-26.021,10.387-36.936,19.111c-10.923,8.711-20.124,19.591-26.877,31.803l-32.148-17.805
					c9.09-16.431,21.43-31.018,36.095-42.716c14.651-11.712,31.644-20.529,49.71-25.712c18.078-5.204,37.095-6.757,55.725-4.683
					c18.655,2.063,36.926,7.879,53.342,16.989L231.541,86.848z"/>
				<path fill="#D7D7D7" d="M236.689,89.892c-11.812-7.448-25.075-12.519-38.832-14.828c-13.751-2.317-28.062-1.937-41.636,1.16
					c-13.597,3.082-26.56,8.897-37.943,16.996c-11.387,8.087-21.179,18.441-28.612,30.258l-31.099-19.581
					c9.997-15.888,23.123-29.765,38.42-40.631c15.286-10.878,32.761-18.725,51.088-22.877c18.343-4.167,37.372-4.674,55.894-1.562
					c18.524,3.108,36.428,9.955,52.301,19.967L236.689,89.892z"/>
				<path fill="#D6D6D6" d="M246.441,96.823c-10.915-8.724-23.537-15.267-36.936-19.111c-13.379-3.858-27.603-5.026-41.499-3.477
					c-13.878,1.538-27.4,5.843-39.607,12.613c-12.212,6.754-23.092,15.954-31.803,26.877L67.879,90.794
					c11.698-14.665,26.285-27.005,42.716-36.095c16.416-9.11,34.687-14.926,53.342-16.989c18.63-2.075,37.646-0.521,55.725,4.683
					c18.066,5.183,35.06,14,49.711,25.712L246.441,96.823z"/>
				<path fill="#D5D5D5" d="M251.014,100.688c-10.411-9.323-22.655-16.569-35.816-21.165c-13.154-4.616-27.229-6.564-41.222-5.785
					c-13.962,0.759-27.703,4.289-40.266,10.36c-12.566,6.056-23.936,14.634-33.247,25.055L73.068,84.655
					c12.498-13.985,27.75-25.5,44.672-33.657c16.908-8.177,35.485-12.941,54.206-13.954c18.683-1.046,37.651,1.565,55.389,7.791
					c17.743,6.196,34.204,15.948,48.177,28.458L251.014,100.688z"/>
				<path fill="#D4D4D4" d="M259.479,109.153c-9.311-10.421-20.681-18.999-33.246-25.055c-12.563-6.071-26.305-9.601-40.267-10.36
					c-13.994-0.779-28.068,1.169-41.222,5.785c-13.161,4.595-25.405,11.841-35.816,21.164L84.43,73.293
					c13.972-12.51,30.434-22.262,48.177-28.458c17.737-6.226,36.706-8.837,55.389-7.791c18.721,1.013,37.298,5.777,54.206,13.954
					c16.922,8.157,32.175,19.671,44.672,33.657L259.479,109.153z"/>
				<path fill="#D3D3D3" d="M266.948,118.504c-8.088-11.387-18.441-21.179-30.259-28.612c-11.812-7.448-25.075-12.519-38.832-14.828
					c-13.751-2.317-28.062-1.937-41.636,1.16c-13.597,3.082-26.56,8.897-37.943,16.996L96.987,63.265
					c15.286-10.878,32.761-18.725,51.088-22.877c18.343-4.167,37.372-4.674,55.894-1.562c18.524,3.108,36.428,9.955,52.301,19.967
					c15.888,9.997,29.765,23.123,40.632,38.42L266.948,118.504z"/>
				<path fill="#D2D2D2" d="M270.275,123.477c-7.434-11.817-17.226-22.17-28.612-30.258c-11.383-8.098-24.346-13.914-37.943-16.996
					c-13.574-3.096-27.885-3.477-41.636-1.16c-13.757,2.31-27.021,7.38-38.833,14.828L103.67,58.792
					c15.874-10.012,33.776-16.859,52.301-19.967c18.523-3.112,37.551-2.605,55.894,1.562c18.327,4.152,35.803,11.999,51.089,22.877
					c15.298,10.867,28.424,24.744,38.42,40.631L270.275,123.477z"/>
				<path fill="#D1D1D1" d="M276.068,133.935c-6.056-12.566-14.634-23.936-25.055-33.247c-10.411-9.323-22.655-16.569-35.816-21.165
					c-13.154-4.616-27.229-6.564-41.222-5.785c-13.962,0.759-27.703,4.289-40.266,10.36l-15.969-33.1
					c16.908-8.177,35.485-12.941,54.206-13.954c18.683-1.046,37.651,1.565,55.389,7.791c17.743,6.196,34.204,15.948,48.177,28.458
					c13.985,12.498,25.5,27.75,33.656,44.672L276.068,133.935z"/>
				<path fill="#D0D0D0" d="M280.644,144.969c-4.596-13.161-11.842-25.405-21.165-35.816c-9.311-10.421-20.681-18.999-33.246-25.055
					c-12.563-6.071-26.305-9.601-40.267-10.36c-13.994-0.779-28.068,1.169-41.222,5.785l-12.137-34.688
					c17.737-6.226,36.706-8.837,55.389-7.791c18.721,1.013,37.298,5.777,54.206,13.954c16.922,8.157,32.175,19.671,44.672,33.657
					c12.511,13.972,22.262,30.434,28.458,48.177L280.644,144.969z"/>
				<path fill="#CFCFCF" d="M282.455,150.661c-3.844-13.399-10.388-26.021-19.111-36.936c-8.711-10.923-19.591-20.124-31.803-26.877
					c-12.207-6.77-25.729-11.076-39.607-12.613c-13.896-1.549-28.12-0.381-41.498,3.477l-10.157-35.318
					c18.078-5.204,37.095-6.757,55.725-4.683c18.655,2.063,36.926,7.879,53.342,16.989c16.432,9.09,31.018,21.43,42.716,36.095
					c11.712,14.651,20.529,31.644,25.712,49.71L282.455,150.661z"/>
				<path fill="#CECECE" d="M285.104,162.31c-2.31-13.758-7.381-27.021-14.828-38.833c-7.434-11.817-17.226-22.17-28.612-30.258
					c-11.383-8.098-24.346-13.914-37.943-16.996c-13.574-3.096-27.885-3.477-41.636-1.16l-6.113-36.238
					c18.523-3.112,37.551-2.605,55.894,1.562c18.327,4.152,35.803,11.999,51.089,22.877c15.298,10.867,28.424,24.744,38.42,40.631
					c10.013,15.874,16.859,33.776,19.967,52.301L285.104,162.31z"/>
				<path fill="#CDCDCD" d="M285.932,168.233c-1.537-13.878-5.843-27.4-12.613-39.607c-6.753-12.212-15.953-23.092-26.877-31.803
					c-10.915-8.724-23.537-15.267-36.936-19.111c-13.379-3.858-27.603-5.026-41.499-3.477l-4.07-36.524
					c18.63-2.075,37.646-0.521,55.725,4.683c18.066,5.183,35.06,14,49.711,25.712c14.665,11.698,27.005,26.285,36.095,42.716
					c9.109,16.416,14.926,34.687,16.988,53.342L285.932,168.233z"/>
				<path fill="#CCCCCC" d="M286.596,180.196c0.007-14.008-2.732-27.927-8.085-40.808c-5.334-12.883-13.259-24.708-23.145-34.588
					c-9.88-9.886-21.705-17.811-34.588-23.145c-12.881-5.352-26.8-8.091-40.808-8.085v-36.75
					c18.721-0.016,37.537,3.673,54.885,10.888c17.36,7.189,33.24,17.84,46.497,31.106c13.265,13.256,23.916,29.136,31.105,46.497
					c7.215,17.348,10.903,36.163,10.888,54.884H286.596z"/>
			</g>
		</g>
	</g>
</g>
</svg>
